<svg xmlns="http://www.w3.org/2000/svg" width="36" height="36" viewBox="0 0 36 36">
    <path style="fill:none" d="M0 0h36v36H0z"/>
    <g data-name="그룹 19">
        <path data-name="패스 6" d="M289.547 20.332a1.04 1.04 0 1 0 1.033 1.039 1.036 1.036 0 0 0-1.033-1.039z" style="fill:#fff" transform="translate(-280 -5)"/>
        <path data-name="패스 7" d="M299.75 20.223a1.12 1.12 0 1 0 1.113 1.12 1.116 1.116 0 0 0-1.113-1.12z" style="fill:#fff" transform="translate(-280 -5)"/>
        <path data-name="패스 8" d="M308.987 10h-21.974A4.026 4.026 0 0 0 283 14.038v13.123a4.026 4.026 0 0 0 4.013 4.038h7.761l2.64 6.259s.182.542.622.542.621-.542.621-.542L301.3 31.2h7.69a4.026 4.026 0 0 0 4.01-4.039V14.038A4.026 4.026 0 0 0 308.987 10zm-16.562 11.6a2.489 2.489 0 0 1-2.477 2.468 2.055 2.055 0 0 1-1.492-.636v.432h-1.795v-7.449c-.007 0-.008 0 0 0 .111.018 1.795 0 1.795 0v2.845c.422-.724 1.643-.712 1.643-.712 2.658.252 2.326 3.052 2.326 3.052zm3.16-2.824v5.1h-1.757v-5.05c0-.686-.847-.877-.847-.877v-1.78a2.439 2.439 0 0 1 2.604 2.607zm4.165 5.3a2.843 2.843 0 0 1-2.945-2.728 2.954 2.954 0 0 1 5.89 0 2.843 2.843 0 0 1-2.945 2.723zm9.626 0a2.518 2.518 0 0 1-2.591 2.592h-.8v-1.684h.481s1.1.1 1.087-1.6c0 0-.215.69-1.757.69a2.322 2.322 0 0 1-2.187-2.3v-.814a2.509 2.509 0 0 1 2.452-2.4 1.784 1.784 0 0 1 1.53.686v-.547h1.782z" style="fill:#fff" transform="translate(-280 -5)"/>
        <path data-name="패스 9" d="M306.582 20.249a1.094 1.094 0 1 0 1.088 1.094 1.09 1.09 0 0 0-1.088-1.094z" style="fill:#fff" transform="translate(-280 -5)"/>
    </g>
</svg>
