<svg xmlns="http://www.w3.org/2000/svg" width="32" height="32" viewBox="0 0 32 32">
    <path style="fill:none" d="M0 0h32v32H0z"/>
    <g data-name="그룹 21">
        <g data-name="그룹 20">
            <path data-name="패스 11" d="M186 9.5c-8.283 0-15 5.2-15 11.616 0 4.175 2.844 7.834 7.114 9.886-.312 1.144-1.141 4.158-1.3 4.8-.205.8.294.795.624.577.258-.166 4.11-2.734 5.777-3.843a19.3 19.3 0 0 0 2.782.2c8.282 0 15-5.206 15-11.616S194.278 9.5 186 9.5zm-7.382 14.8a.748.748 0 0 1-.214.506.736.736 0 0 1-.517.2h-.152a.736.736 0 0 1-.517-.2.744.744 0 0 1-.218-.506v-5.149h-1.426a.738.738 0 0 1-.749-.725.746.746 0 0 1 .749-.734h4.386a.746.746 0 0 1 .749.734.739.739 0 0 1-.749.725h-1.346zm7.177.672a.72.72 0 0 1-.919-.437L184.5 23.5h-3l-.365 1.039a.729.729 0 0 1-.927.437.71.71 0 0 1-.446-.908l2.148-5.642a.975.975 0 0 1 .045-.1 1.042 1.042 0 0 1 1.061-.743 1.08 1.08 0 0 1 1.025.621l.009.008 2.184 5.852a.7.7 0 0 1-.443.912zm4.707-.009h-2.982a.67.67 0 0 1-.677-.663.507.507 0 0 1 .017-.123.644.644 0 0 1-.017-.131v-5.664a.811.811 0 0 1 1.622 0v5.258h2.035a.664.664 0 1 1 0 1.327zm6.374-.1a.725.725 0 0 1-1.007-.139l-2.149-2.76-.463.454v1.8a.812.812 0 0 1-1.623 0v-5.836a.812.812 0 0 1 1.623 0v2.07l2.54-2.5a.727.727 0 0 1 1.008 0 .692.692 0 0 1 0 .987l-2.051 2.018 2.274 2.925a.692.692 0 0 1-.156.989z" style="fill:#fff" transform="translate(-170 -7)"/>
        </g>
        <path data-name="패스 12" d="M184.025 22.1h-2.042l1-2.8h.036z" style="fill:#fff" transform="translate(-170 -7)"/>
    </g>
</svg>
