<svg xmlns="http://www.w3.org/2000/svg" width="37" height="37" viewBox="0 0 37 37">
    <defs>
        <clipPath id="wh2gths9ia">
            <path data-name="사각형 10973" transform="translate(-.999 -.999)" style="fill:none" d="M0 0h37v37H0z"/>
        </clipPath>
    </defs>
    <g data-name="그룹 18965" transform="translate(.999 .998)" style="clip-path:url(#wh2gths9ia)">
        <path data-name="패스 201" d="M35.3 27.444a7.853 7.853 0 0 1-7.856 7.856H7.853A7.853 7.853 0 0 1 0 27.444V7.853A7.853 7.853 0 0 1 7.853 0h19.591A7.853 7.853 0 0 1 35.3 7.853z" transform="translate(.023 -.276)" style="fill:#fff"/>
        <path data-name="패스 202" d="M32.477 20.544c-6.166 0-11.163 4.6-11.163 10.267 0 4.188 1.764 6.187 4.18 8.009l.011.005v4.914a.284.284 0 0 0 .453.226l4.233-3.126.091.039a12.166 12.166 0 0 0 2.195.2c6.165 0 11.163-4.6 11.163-10.267s-5-10.267-11.163-10.267m-3.742 12.868a2.331 2.331 0 0 0 2.312-1.657h1.618a3.867 3.867 0 0 1-3.93 3.205 4.162 4.162 0 1 1 0-8.323 3.871 3.871 0 0 1 3.942 3.263h-1.614a2.3 2.3 0 0 0-2.328-1.739 2.52 2.52 0 0 0-2.627 2.639 2.584 2.584 0 0 0 2.627 2.613M39.4 34.8h-1.483v-3.326a1.062 1.062 0 0 0-1.139-1.174c-.77 0-1.265.469-1.265 1.418V34.8H34.03v-8.137h1.484v3.061a1.905 1.905 0 0 1 1.713-.8 2.039 2.039 0 0 1 1.552.629 2.365 2.365 0 0 1 .622 1.738z" transform="translate(-14.824 -14.622)" style="fill:#000100"/>
    </g>
</svg>
