<svg xmlns="http://www.w3.org/2000/svg" width="33" height="33" viewBox="0 0 33 33">
    <path data-name="빼기 1" d="M13.5 31a44.656 44.656 0 0 1-6.75-5.46 28.62 28.62 0 0 1-4.641-5.834A14.05 14.05 0 0 1 0 12.682C0 5.689 6.056 0 13.5 0S27 5.689 27 12.682a14.05 14.05 0 0 1-2.109 7.024 28.62 28.62 0 0 1-4.641 5.834A44.656 44.656 0 0 1 13.5 31zm0-22.545A4.375 4.375 0 0 0 9 12.682a4.375 4.375 0 0 0 4.5 4.227 4.375 4.375 0 0 0 4.5-4.227 4.375 4.375 0 0 0-4.5-4.227z" transform="translate(3 1)" style="fill:#fff"/>
    <path data-name="사각형 10985" style="fill:none" d="M0 0h33v33H0z"/>
</svg>
