<svg xmlns="http://www.w3.org/2000/svg" width="36" height="36" viewBox="0 0 36 36">
    <defs>
        <clipPath id="m94zdaa5ra">
            <path data-name="사각형 12373" style="fill:none" d="M0 0h29.922v27.912H0z"/>
        </clipPath>
    </defs>
    <path style="fill:none" d="M0 0h36v36H0z"/>
    <g data-name="그룹 19507" style="clip-path:url(#m94zdaa5ra)" transform="translate(3.039 6.02)">
        <path data-name="패스 8623" d="M26.064 0H3.858A3.858 3.858 0 0 0 0 3.858v13.478a3.858 3.858 0 0 0 3.858 3.858h3.218l-1.719 6.177a.43.43 0 0 0 .655.467l9.9-6.645h10.152a3.858 3.858 0 0 0 3.858-3.858V3.858A3.858 3.858 0 0 0 26.064 0m-5.933 11.782a.379.379 0 0 1-.38.38h-3.145v3.145a.379.379 0 0 1-.38.38H13.7a.379.379 0 0 1-.38-.38v-3.145h-3.149a.379.379 0 0 1-.38-.38V9.251a.379.379 0 0 1 .38-.38h3.145V5.727a.379.379 0 0 1 .38-.38h2.531a.379.379 0 0 1 .38.38v3.145h3.145a.379.379 0 0 1 .38.38z" style="fill:#fff"/>
    </g>
</svg>
