<svg xmlns="http://www.w3.org/2000/svg" width="33" height="33" viewBox="0 0 33 33">
    <defs>
        <clipPath id="p4k66iq1fa">
            <path data-name="사각형 10987" style="fill:#fff" d="M0 0h29v29H0z"/>
        </clipPath>
    </defs>
    <g data-name="그룹 7">
        <g data-name="그룹 6" style="clip-path:url(#p4k66iq1fa)" transform="translate(1.999 2)">
            <path data-name="패스 184" d="M0 26.878V0h11.747a11.574 11.574 0 0 1 5.326 1.175 8.512 8.512 0 0 1 3.568 3.313 9.557 9.557 0 0 1 1.265 4.96 9.347 9.347 0 0 1-1.285 4.952 8.462 8.462 0 0 1-3.649 3.253 12.48 12.48 0 0 1-5.485 1.143H4.421v-5.515h5.647a5.377 5.377 0 0 0 2.316-.459 3.271 3.271 0 0 0 1.479-1.33 4.037 4.037 0 0 0 .5-2.043 3.953 3.953 0 0 0-.5-2.027 3.2 3.2 0 0 0-1.479-1.3 5.524 5.524 0 0 0-2.316-.447H7.242v21.203z" transform="translate(6 .994)" style="fill:#fff"/>
        </g>
    </g>
    <path data-name="사각형 10986" style="fill:none" d="M0 0h33v33H0z"/>
</svg>
