<svg xmlns="http://www.w3.org/2000/svg" width="32" height="32" viewBox="0 0 32 32">
    <path d="M30 22.91v4.2a2.8 2.8 0 0 1-3.057 2.8 27.76 27.76 0 0 1-12.1-4.3 27.336 27.336 0 0 1-8.413-8.409A27.724 27.724 0 0 1 2.13 5.05 2.8 2.8 0 0 1 4.914 2H9.12a2.8 2.8 0 0 1 2.8 2.41 17.986 17.986 0 0 0 .982 3.938 2.8 2.8 0 0 1-.631 2.957l-1.781 1.78a22.429 22.429 0 0 0 8.413 8.409l1.781-1.78a2.806 2.806 0 0 1 2.959-.631 18.013 18.013 0 0 0 3.94.981A2.8 2.8 0 0 1 30 22.91z" transform="translate(-.111)" style="fill:#fff"/>
    <path data-name="사각형 10977" style="fill:none" d="M0 0h32v32H0z"/>
</svg>
