<svg xmlns="http://www.w3.org/2000/svg" width="37" height="37" viewBox="0 0 37 37">
    <path d="M35 26.653v4.957a3.306 3.306 0 0 1-3.6 3.3 32.742 32.742 0 0 1-14.271-5.073A32.233 32.233 0 0 1 7.2 19.928 32.683 32.683 0 0 1 2.125 5.6 3.306 3.306 0 0 1 5.416 2h4.961a3.306 3.306 0 0 1 3.307 2.842 21.2 21.2 0 0 0 1.158 4.643 3.3 3.3 0 0 1-.744 3.486L12 15.07a26.448 26.448 0 0 0 9.922 9.914l2.1-2.1a3.309 3.309 0 0 1 3.489-.744 21.246 21.246 0 0 0 4.644 1.16A3.305 3.305 0 0 1 35 26.653z" transform="translate(-.111)" style="fill:#fff"/>
    <path data-name="사각형 10977" style="fill:none" d="M0 0h37v37H0z"/>
</svg>
